<svg xmlns="http://www.w3.org/2000/svg" viewBox="0 0 32 32" fill="none">
  <rect width="32" height="32" rx="7" fill="#010001" />
  <path
    fill="#fffefe"
    d="M6 4.5h12v2.8H8.8v3.2h7.4v2.8H8.8v6.7H6V4.5z"
  />
  <path
    fill="#fffefe"
    d="M15.24 18.32C8.08 18.32 5.92 20.08 5.92 21.52C5.92 22.72 7.36 23.6 9.76 23.84C12.64 24.12 15.52 24.48 15.52 26C15.52 27.68 12.64 29.04 8.32 29.04C6.64 29.04 5.44 28.72 5.44 28.72V26.64C6.64 26.96 8.08 27.2 9.52 26.88C11.2 26.48 11.92 25.68 11.92 24.8C11.92 23.76 10.48 23.36 8.48 23.12C6.16 22.84 4.48 21.68 4.48 19.92C4.48 17.84 7.36 16.48 13.84 16.48H15.24V18.32Z"
  />
  <circle cx="22.5" cy="7.5" r="2.8" stroke="#fffefe" stroke-width="1.3" fill="none" />
</svg>
